<svg width="270" height="120" fill="none" xmlns="http://www.w3.org/2000/svg"><rect width="270" height="120" rx="4" fill="#F5F4FA"/><path d="M169.943 34.896a1.166 1.166 0 0 0-.941-.793l-4.179-.608-1.87-3.787c-.392-.798-1.7-.798-2.092 0l-1.87 3.787-4.18.608a1.165 1.165 0 0 0-.647 1.99l3.025 2.948-.714 4.162c-.074.438.105.88.463 1.141.363.264.837.297 1.23.09l3.738-1.967 3.738 1.966a1.17 1.17 0 0 0 1.23-.089c.359-.26.539-.703.463-1.14l-.714-4.163 3.025-2.949a1.17 1.17 0 0 0 .295-1.196Zm-5.387 2.903a1.165 1.165 0 0 0-.335 1.033l.417 2.437-2.188-1.15a1.164 1.164 0 0 0-1.088 0l-2.188 1.15.417-2.437a1.164 1.164 0 0 0-.335-1.033l-1.772-1.727 2.448-.355c.38-.055.708-.294.879-.639l1.094-2.216 1.094 2.216c.171.344.498.584.879.639l2.447.355-1.769 1.727ZM157.167 69.892h-2.333v2.334h2.333v-2.334ZM157.167 74.56h-2.333v2.332h2.333V74.56ZM159.5 72.226h-2.333v2.333h2.333v-2.333ZM154.834 72.226H152.5v2.333h2.334v-2.333ZM149 82.726h-2.333v2.333H149v-2.333ZM149 87.393h-2.333v2.333H149v-2.333ZM151.334 85.06H149v2.333h2.334v-2.334ZM146.667 85.06h-2.334v2.333h2.334v-2.334ZM135 78.06h-2.333v2.333H135v-2.334ZM135 82.726h-2.333v2.333H135v-2.333ZM137.333 80.392H135v2.334h2.333v-2.334ZM132.667 80.392h-2.334v2.334h2.334v-2.334ZM112.833 38.392H110.5v2.333h2.333v-2.333ZM112.833 43.059H110.5v2.333h2.333V43.06ZM115.166 40.725h-2.333v2.334h2.333v-2.334ZM110.5 40.725h-2.334v2.334h2.334v-2.334Z" fill="#2196F3"/><path d="M154.064 55.974a3.881 3.881 0 0 0-2.6-1.541 3.887 3.887 0 0 0-2.931.77l-2.738 2.098-.001.002-4.151 3.1-2.971-1.184c5.297-2.376 8.999-7.674 8.999-13.825 0-8.363-6.831-15.167-15.227-15.167-8.397 0-15.228 6.804-15.228 15.167 0 3.031.907 5.85 2.45 8.222l-6.046-.053h-.01c-.019 0-.034.01-.051.01a1.141 1.141 0 0 0-.34.069c-.028.01-.057.016-.084.029-.014.005-.028.007-.042.014l-7.072 3.491c-.001 0-.003 0-.003.002l-4.141 1.991a.863.863 0 0 0-.138.077 3.895 3.895 0 0 0-1.309 5.022 3.884 3.884 0 0 0 2.31 1.944 3.892 3.892 0 0 0 3.016-.281l3.036-1.614 4.952-2.558 2.968-.017-11.904 11.846-.003.003-2.929 2.916a3.61 3.61 0 0 0-1.072 2.576 3.62 3.62 0 0 0 1.072 2.579 3.65 3.65 0 0 0 2.58 1.061c.936 0 1.869-.354 2.582-1.061l2.875-2.863 3.808-2.843 1.97 1.962-3.853 3.837-.004.002-2.928 2.917a3.607 3.607 0 0 0-1.073 2.576 3.648 3.648 0 0 0 3.653 3.64c.935 0 1.871-.354 2.582-1.061l2.93-2.917 4.686-4.667.003-.003 2.208-2.188-.008-.008c.014-.014.034-.019.048-.034l11.3-12.377 7.593 1.08c.055.008.11.012.165.012.141 0 .277-.034.409-.084.039-.014.072-.033.109-.051.042-.021.086-.033.126-.06l7.029-4.666c.026-.018.04-.046.064-.065.028-.022.063-.031.089-.056l2.781-2.605a3.892 3.892 0 0 0 .464-5.166Zm-49.404 7.898a1.558 1.558 0 0 1-1.221.113 1.562 1.562 0 0 1-.465-2.756l2.874-1.382.692 2.022.29.85-2.17 1.153Zm7.65-3.998-3.387 1.75-.558-1.633-.402-1.174 4.434-2.189-.087 3.246Zm33.03-14.482c0 2.009-.479 3.904-1.31 5.599l-9.147-4.155a4.067 4.067 0 0 0-1.724-3.035l3.202-10.633c5.202 1.655 8.979 6.507 8.979 12.224Zm-25.788 0c0-7.076 5.784-12.834 12.894-12.834.553 0 1.094.047 1.63.115l-3.133 10.398c-.042 0-.081-.012-.124-.012-2.259 0-4.097 1.831-4.097 4.083 0 2.252 1.838 4.083 4.097 4.083 1.519 0 2.831-.838 3.539-2.066l8.449 3.839c-2.351 3.163-6.113 5.227-10.361 5.227-7.11 0-12.894-5.757-12.894-12.833Zm13.029 1.75c0 .965-.791 1.75-1.762 1.75a1.759 1.759 0 0 1-1.763-1.75c0-.965.791-1.75 1.763-1.75.971 0 1.762.785 1.762 1.75Zm-27.189 32.865a1.33 1.33 0 0 1-1.869.002 1.297 1.297 0 0 1 0-1.847l2.104-2.097 1.862 1.854-2.097 2.088Zm7.03 8.167a1.33 1.33 0 0 1-1.87.001 1.297 1.297 0 0 1 0-1.846l2.106-2.098.881.876.982.978-2.099 2.09Zm7.616-7.588-.003.002-3.861 3.85-.881-.876-.982-.977 3.857-3.84v-.001l.004-.002c.087-.088.142-.193.196-.297.015-.03.044-.056.057-.087.036-.09.042-.187.056-.281.007-.054.03-.104.03-.16 0-.077-.028-.153-.044-.23-.014-.07-.014-.141-.041-.209a1.164 1.164 0 0 0-.199-.301c-.023-.026-.031-.058-.055-.083h-.002l-.002-.004-3.515-3.5c-.037-.038-.085-.053-.127-.085a1.124 1.124 0 0 0-.19-.126 1.115 1.115 0 0 0-.205-.07 1.126 1.126 0 0 0-.225-.044 1.133 1.133 0 0 0-.208.01c-.079.01-.152.02-.228.045-.074.023-.139.06-.206.098-.044.024-.093.033-.133.063l-3.88 2.896-1.97-1.963 5.248-5.22 9.538 9.382-2.029 2.01Zm14.916-15.349c-.033-.004-.065.008-.099.006a1.195 1.195 0 0 0-.444.062 1.07 1.07 0 0 0-.211.103c-.066.04-.125.081-.182.134-.028.024-.062.036-.088.064l-10.277 11.256-9.468-9.311 6.197-6.165a1.167 1.167 0 0 0-.83-1.993l-4.854.028.061-3.516 6.79.058a15.201 15.201 0 0 0 10.897 4.596c.957 0 1.89-.1 2.799-.268.087.07.174.14.283.185l5.272 2.1.333 1.659.39 1.937-6.569-.935Zm8.84.39-.684-3.408 3.164-2.363.828 1.1 1.243 1.649-4.551 3.022Zm8.211-6.193-1.832 1.717-2.037-2.704 1.818-1.394c.34-.261.768-.368 1.188-.313.422.06.796.28 1.05.622a1.562 1.562 0 0 1-.187 2.072Z" fill="#212121"/><path d="m129.755 65.565-4.688-4.667a1.165 1.165 0 0 0-1.646 0l-4.687 4.667c-.219.22-.343.517-.343.827 0 .31.122.608.343.827l4.687 4.667a1.164 1.164 0 0 0 1.646 0l4.688-4.667a1.168 1.168 0 0 0 0-1.654Zm-5.511 3.848-3.033-3.02 3.033-3.021 3.035 3.02-3.035 3.02ZM137.547 36.092l-.564 2.266c.155.039 3.801.988 3.801 4.7h2.334c0-4.412-3.644-6.486-5.571-6.966ZM143.118 45.392h-2.334v2.333h2.334v-2.333Z" fill="#212121"/></svg>